<svg width="2000" height="579" viewBox="0 0 2000 579" fill="none" xmlns="http://www.w3.org/2000/svg">
<g clip-path="url(#clip0_3314_14)">
<path d="M1058.8 17.0606C1053.98 26.6993 1036.63 105.737 1020.24 193.45C977.829 415.141 979.757 408.394 971.082 398.755C967.226 394.9 956.622 366.947 947.947 337.067C924.812 256.102 887.218 236.824 865.047 295.621C852.516 327.428 847.696 322.609 832.273 263.813C816.85 204.052 792.751 196.341 779.256 248.391C773.472 268.632 759.977 338.995 749.373 405.502C737.806 471.046 728.167 526.951 726.239 527.915C725.275 529.842 715.635 486.468 706.96 431.527C683.825 301.404 663.582 210.8 652.979 193.45C637.555 169.353 613.457 194.414 591.286 256.102L571.043 313.934L321.38 316.826C161.365 317.79 67.862 315.862 61.1143 309.115C56.2946 304.295 41.8354 299.476 30.268 299.476C4.24137 299.476 -9.25391 332.248 7.13321 352.489C20.6285 368.875 51.4748 371.767 60.1504 357.309C64.0062 351.525 161.365 347.67 321.38 347.67H575.863L595.142 315.862C605.745 299.476 617.312 270.56 620.204 253.21C623.096 236.824 628.88 222.366 632.736 222.366C636.591 222.366 653.943 297.548 671.294 388.153C707.924 579 708.888 579 725.275 579C745.518 579 747.446 573.217 774.436 414.177C787.931 332.248 801.427 263.813 803.355 261.885C805.282 259.957 811.066 278.271 817.814 303.332C823.597 327.428 833.237 350.561 838.057 353.453C849.624 361.164 874.687 338.995 885.29 311.043C897.821 279.235 903.605 287.91 932.524 369.839C951.803 423.816 960.478 439.238 975.901 439.238C999.036 439.238 1007.71 409.358 1044.34 205.016C1059.76 119.231 1074.22 48.8685 1077.12 48.8685C1080.01 48.8685 1101.21 152.003 1124.35 277.307C1170.62 529.842 1176.4 550.084 1196.65 550.084C1212.07 550.084 1214 544.3 1240.99 371.767C1263.16 232.005 1285.33 145.256 1298.82 145.256C1310.39 145.256 1330.63 184.775 1351.84 251.282C1384.62 356.345 1356.66 347.67 1665.12 347.67C1833.82 347.67 1935.99 351.525 1939.85 357.309C1948.53 371.767 1979.37 368.875 1992.87 352.489C2009.25 332.248 1995.76 299.476 1969.73 299.476C1958.16 299.476 1943.71 304.295 1938.89 309.115C1932.14 315.862 1834.78 317.79 1665.12 316.826L1401.97 313.934L1374.98 232.969C1331.6 105.737 1294 81.6403 1260.27 157.786C1241.95 198.269 1202.43 411.286 1202.43 466.227C1202.43 510.565 1186.04 487.432 1179.29 432.491C1171.58 374.658 1131.1 163.57 1109.89 65.2544C1094.47 -0.289179 1077.12 -16.6751 1058.8 17.0606Z" fill="url(#paint0_linear_3314_14)"/>
</g>
<defs>
<linearGradient id="paint0_linear_3314_14" x1="-7.42285e-06" y1="289.548" x2="2000" y2="289.548" gradientUnits="userSpaceOnUse">
<stop stop-color="#2CA4AB"/>
<stop offset="0.15" stop-color="#2B9DA5"/>
<stop offset="0.35" stop-color="#298C97"/>
<stop offset="0.58" stop-color="#266F7E"/>
<stop offset="0.83" stop-color="#22485D"/>
<stop offset="1" stop-color="#1F2A44"/>
</linearGradient>
<clipPath id="clip0_3314_14">
<rect width="2000" height="579" fill="white"/>
</clipPath>
</defs>
</svg>
