<svg width="2000" height="962" viewBox="0 0 2000 962" fill="none" xmlns="http://www.w3.org/2000/svg">
<path d="M495.6 787.4V852C495.6 857.333 496.733 861.133 499 863.4C501.267 865.533 505.2 866.6 510.8 866.6H524.2V882H507.8C497.667 882 490.067 879.667 485 875C479.933 870.333 477.4 862.667 477.4 852V787.4H463.2V772.4H477.4V744.8H495.6V772.4H524.2V787.4H495.6ZM723.452 772.4V882H705.252V865.8C701.785 871.4 696.918 875.8 690.652 879C684.518 882.067 677.718 883.6 670.252 883.6C661.718 883.6 654.052 881.867 647.252 878.4C640.452 874.8 635.052 869.467 631.052 862.4C627.185 855.333 625.252 846.733 625.252 836.6V772.4H643.252V834.2C643.252 845 645.985 853.333 651.452 859.2C656.918 864.933 664.385 867.8 673.852 867.8C683.585 867.8 691.252 864.8 696.852 858.8C702.452 852.8 705.252 844.067 705.252 832.6V772.4H723.452ZM903.981 810.2C909.048 811 913.648 813.067 917.781 816.4C922.048 819.733 925.381 823.867 927.781 828.8C930.315 833.733 931.581 839 931.581 844.6C931.581 851.667 929.781 858.067 926.181 863.8C922.581 869.4 917.315 873.867 910.381 877.2C903.581 880.4 895.515 882 886.181 882H834.181V742.6H884.181C893.648 742.6 901.715 744.2 908.381 747.4C915.048 750.467 920.048 754.667 923.381 760C926.715 765.333 928.381 771.333 928.381 778C928.381 786.267 926.115 793.133 921.581 798.6C917.181 803.933 911.315 807.8 903.981 810.2ZM852.381 802.8H882.981C891.515 802.8 898.115 800.8 902.781 796.8C907.448 792.8 909.781 787.267 909.781 780.2C909.781 773.133 907.448 767.6 902.781 763.6C898.115 759.6 891.381 757.6 882.581 757.6H852.381V802.8ZM884.581 867C893.648 867 900.715 864.867 905.781 860.6C910.848 856.333 913.381 850.4 913.381 842.8C913.381 835.067 910.715 829 905.381 824.6C900.048 820.067 892.915 817.8 883.981 817.8H852.381V867H884.581ZM1084.64 883.8C1074.37 883.8 1065.04 881.467 1056.64 876.8C1048.37 872.133 1041.84 865.533 1037.04 857C1032.37 848.333 1030.04 838.333 1030.04 827C1030.04 815.8 1032.44 805.933 1037.24 797.4C1042.17 788.733 1048.84 782.133 1057.24 777.6C1065.64 772.933 1075.04 770.6 1085.44 770.6C1095.84 770.6 1105.24 772.933 1113.64 777.6C1122.04 782.133 1128.64 788.667 1133.44 797.2C1138.37 805.733 1140.84 815.667 1140.84 827C1140.84 838.333 1138.3 848.333 1133.24 857C1128.3 865.533 1121.57 872.133 1113.04 876.8C1104.5 881.467 1095.04 883.8 1084.64 883.8ZM1084.64 867.8C1091.17 867.8 1097.3 866.267 1103.04 863.2C1108.77 860.133 1113.37 855.533 1116.84 849.4C1120.44 843.267 1122.24 835.8 1122.24 827C1122.24 818.2 1120.5 810.733 1117.04 804.6C1113.57 798.467 1109.04 793.933 1103.44 791C1097.84 787.933 1091.77 786.4 1085.24 786.4C1078.57 786.4 1072.44 787.933 1066.84 791C1061.37 793.933 1056.97 798.467 1053.64 804.6C1050.3 810.733 1048.64 818.2 1048.64 827C1048.64 835.933 1050.24 843.467 1053.44 849.6C1056.77 855.733 1061.17 860.333 1066.64 863.4C1072.1 866.333 1078.1 867.8 1084.64 867.8ZM1292.57 883.8C1282.3 883.8 1272.97 881.467 1264.57 876.8C1256.3 872.133 1249.77 865.533 1244.97 857C1240.3 848.333 1237.97 838.333 1237.97 827C1237.97 815.8 1240.37 805.933 1245.17 797.4C1250.1 788.733 1256.77 782.133 1265.17 777.6C1273.57 772.933 1282.97 770.6 1293.37 770.6C1303.77 770.6 1313.17 772.933 1321.57 777.6C1329.97 782.133 1336.57 788.667 1341.37 797.2C1346.3 805.733 1348.77 815.667 1348.77 827C1348.77 838.333 1346.23 848.333 1341.17 857C1336.23 865.533 1329.5 872.133 1320.97 876.8C1312.43 881.467 1302.97 883.8 1292.57 883.8ZM1292.57 867.8C1299.1 867.8 1305.23 866.267 1310.97 863.2C1316.7 860.133 1321.3 855.533 1324.77 849.4C1328.37 843.267 1330.17 835.8 1330.17 827C1330.17 818.2 1328.43 810.733 1324.97 804.6C1321.5 798.467 1316.97 793.933 1311.37 791C1305.77 787.933 1299.7 786.4 1293.17 786.4C1286.5 786.4 1280.37 787.933 1274.77 791C1269.3 793.933 1264.9 798.467 1261.57 804.6C1258.23 810.733 1256.57 818.2 1256.57 827C1256.57 835.933 1258.17 843.467 1261.37 849.6C1264.7 855.733 1269.1 860.333 1274.57 863.4C1280.03 866.333 1286.03 867.8 1292.57 867.8ZM1513.9 882L1470.9 833.6V882H1452.7V734H1470.9V821L1513.1 772.4H1538.5L1486.9 827L1538.7 882H1513.9Z" fill="url(#paint0_linear_3314_14)"/>
<g clip-path="url(#clip0_3314_14)">
<path d="M1058.8 17.0606C1053.98 26.6993 1036.63 105.737 1020.24 193.45C977.829 415.141 979.757 408.394 971.082 398.755C967.226 394.9 956.622 366.947 947.947 337.067C924.812 256.102 887.218 236.824 865.047 295.621C852.516 327.428 847.696 322.609 832.273 263.813C816.85 204.052 792.751 196.341 779.256 248.391C773.472 268.632 759.977 338.995 749.373 405.502C737.806 471.046 728.167 526.951 726.239 527.915C725.275 529.842 715.635 486.468 706.96 431.527C683.825 301.404 663.582 210.8 652.979 193.45C637.555 169.353 613.457 194.414 591.286 256.102L571.043 313.934L321.38 316.826C161.365 317.79 67.862 315.862 61.1143 309.115C56.2946 304.295 41.8354 299.476 30.268 299.476C4.24137 299.476 -9.25391 332.248 7.13321 352.489C20.6285 368.875 51.4748 371.767 60.1504 357.309C64.0062 351.525 161.365 347.67 321.38 347.67H575.863L595.142 315.862C605.745 299.476 617.312 270.56 620.204 253.21C623.096 236.824 628.88 222.366 632.736 222.366C636.591 222.366 653.943 297.548 671.294 388.153C707.924 579 708.888 579 725.275 579C745.518 579 747.446 573.217 774.436 414.177C787.931 332.248 801.427 263.813 803.355 261.885C805.282 259.957 811.066 278.271 817.814 303.332C823.597 327.428 833.237 350.561 838.057 353.453C849.624 361.164 874.687 338.995 885.29 311.043C897.821 279.235 903.605 287.91 932.524 369.839C951.803 423.816 960.478 439.238 975.901 439.238C999.036 439.238 1007.71 409.358 1044.34 205.016C1059.76 119.231 1074.22 48.8685 1077.12 48.8685C1080.01 48.8685 1101.21 152.003 1124.35 277.307C1170.62 529.842 1176.4 550.084 1196.65 550.084C1212.07 550.084 1214 544.3 1240.99 371.767C1263.16 232.005 1285.33 145.256 1298.82 145.256C1310.39 145.256 1330.63 184.775 1351.84 251.282C1384.62 356.345 1356.66 347.67 1665.12 347.67C1833.82 347.67 1935.99 351.525 1939.85 357.309C1948.53 371.767 1979.37 368.875 1992.87 352.489C2009.25 332.248 1995.76 299.476 1969.73 299.476C1958.16 299.476 1943.71 304.295 1938.89 309.115C1932.14 315.862 1834.78 317.79 1665.12 316.826L1401.97 313.934L1374.98 232.969C1331.6 105.737 1294 81.6403 1260.27 157.786C1241.95 198.269 1202.43 411.286 1202.43 466.227C1202.43 510.565 1186.04 487.432 1179.29 432.491C1171.58 374.658 1131.1 163.57 1109.89 65.2544C1094.47 -0.289179 1077.12 -16.6751 1058.8 17.0606Z" fill="url(#paint1_linear_3314_14)"/>
</g>
<defs>
<linearGradient id="paint0_linear_3314_14" x1="458.008" y1="812.027" x2="1540.99" y2="812.027" gradientUnits="userSpaceOnUse">
<stop stop-color="#2CA4AB"/>
<stop offset="0.15" stop-color="#2B9DA5"/>
<stop offset="0.35" stop-color="#298C97"/>
<stop offset="0.58" stop-color="#266F7E"/>
<stop offset="0.83" stop-color="#22485D"/>
<stop offset="1" stop-color="#1F2A44"/>
</linearGradient>
<linearGradient id="paint1_linear_3314_14" x1="-7.42285e-06" y1="289.548" x2="2000" y2="289.548" gradientUnits="userSpaceOnUse">
<stop stop-color="#2CA4AB"/>
<stop offset="0.15" stop-color="#2B9DA5"/>
<stop offset="0.35" stop-color="#298C97"/>
<stop offset="0.58" stop-color="#266F7E"/>
<stop offset="0.83" stop-color="#22485D"/>
<stop offset="1" stop-color="#1F2A44"/>
</linearGradient>
<clipPath id="clip0_3314_14">
<rect width="2000" height="579" fill="white"/>
</clipPath>
</defs>
</svg>
